<?xml version="1.0" standalone="no"?><!DOCTYPE svg PUBLIC "-//W3C//DTD SVG 1.1//EN" "http://www.w3.org/Graphics/SVG/1.1/DTD/svg11.dtd"><svg t="1601195092569" class="icon" viewBox="0 0 1024 1024" version="1.1" xmlns="http://www.w3.org/2000/svg" p-id="1182" xmlns:xlink="http://www.w3.org/1999/xlink" width="200" height="200"><defs><style type="text/css"></style></defs><path d="M895.996 131.298v76.53l-52.188-23.406a34.454 34.454 0 0 0-14.248-3.062c-13.688 0-26.188 8.094-31.75 20.592l-6.624 14.688h-100.31l-23.688-76.968c-3.468-11.25-15.406-17.562-26.688-14.094l-285.406 87.936a20.986 20.986 0 0 0-6.25 3.124H128.002v-85.34h-128v768.01h677.81c0.124 0.032 0.25 0.032 0.376 0.062h1c0.376 0 0.782-0.032 1.188-0.062h343.622V131.298h-128.002z m-37 151.218c-10.75-4.812-23.376 0-28.186 10.75l-80.438 179.374h-27.188l95.624-213.342h77.186v53.438l-71.686 159.904H797.12l72.592-161.936c4.846-10.75 0.034-23.374-10.716-28.188z m37 134.53v55.592h-24.938l24.938-55.592z m-123.936-157.748l-92.498 206.31a37.73 37.73 0 0 0-2.282 7.032h-19.156l-48.906-158.842 81.532-25.124a21.268 21.268 0 0 0 12.594-10.406 21.19 21.19 0 0 0 1.53-16.25l-0.812-2.718h67.998zM524.218 472.64l-37.344-121.156 81.562-25.124 45.062 146.28h-89.28z m-142.092-213.342h259.062l-260.906 80.374 1.844-80.374z m250.562-86.656l13.562 44h-156.406l142.844-44z m-293.25 86.656l-2.5 109c-0.124 6.844 3 13.376 8.5 17.5a21.194 21.194 0 0 0 12.844 4.312 21.68 21.68 0 0 0 6.282-0.938l81.562-25.124 33.436 108.592H339.5c0.938-13.218 0.124-28.218-2.562-44.936-3.376-21.218-9.688-44.906-18.25-68.5-7.812-21.5-17.124-42-26.312-57.686-12.376-21.124-23.124-31.968-34.938-35.124a31.566 31.566 0 0 0-8.188-1.062c-30.656 0-84.436 44.938-94.874 53.938-10 8.592-18.75 16.812-26.376 24.624v-84.592h211.438z m-123.498 161.968c-11.376-3.062-23.062 3.718-26.124 15.094l-9.688 36.28H128.002v-61.342c11.124-17.656 29.312-38 52.188-57.938 30.062-26.25 55.374-40.624 65.874-44.406 7.188 8.5 21.876 33.624 34.812 71.406 12.624 36.718 18.25 70.156 15.812 92.28h-72.406l6.782-25.25c3.032-11.374-3.75-23.094-15.124-26.124zM85.316 856.652H42.66V173.986h42.656V856.652z m42.686-42.656h21.312c11.782 0 21.344-9.562 21.344-21.344s-9.562-21.344-21.344-21.344H128.002v-128h106.656c11.782 0 21.344-9.532 21.344-21.312s-9.562-21.344-21.344-21.344H128.002v-85.356h767.994V558h-63.998c-11.812 0-21.344 9.532-21.344 21.308 0 11.782 9.532 21.344 21.344 21.344h63.998v170.656h-127.998c-54.376 0-81.686 29.282-95.03 53.812-6.156 11.312-9.782 22.468-11.968 31.532H128.002v-42.656z m577.496 42.656a79.5 79.5 0 0 1 5.562-12.25c11.562-20.468 30.188-30.406 56.938-30.406h127.998v42.656h-190.498z m275.81 0h-42.656V173.986h42.656v682.666z" fill="#080808" p-id="1183"></path></svg>